<svg xmlns="http://www.w3.org/2000/svg" xmlns:xlink="http://www.w3.org/1999/xlink" viewBox="0 0 233.19 392.81"><defs><style>.cls-1{fill:url(#Degradado_sin_nombre_9);}.cls-2{fill:url(#Degradado_sin_nombre_9-2);}.cls-3{fill:url(#Degradado_sin_nombre_9-3);}.cls-4{fill:url(#Degradado_sin_nombre_9-4);}.cls-5{fill:url(#Degradado_sin_nombre_9-5);}.cls-6{fill:url(#Degradado_sin_nombre_9-6);}.cls-7{fill:url(#Degradado_sin_nombre_9-7);}</style><linearGradient id="Degradado_sin_nombre_9" x1="94.79" y1="9.21" x2="114.76" y2="9.21" gradientUnits="userSpaceOnUse"><stop offset="0" stop-color="#32a1c1"/><stop offset="0.46" stop-color="#31b2c2"/><stop offset="1" stop-color="#1ec6c0"/></linearGradient><linearGradient id="Degradado_sin_nombre_9-2" x1="0.33" y1="137" x2="114.76" y2="137" xlink:href="#Degradado_sin_nombre_9"/><linearGradient id="Degradado_sin_nombre_9-3" x1="127.12" y1="141.11" x2="207.54" y2="141.11" xlink:href="#Degradado_sin_nombre_9"/><linearGradient id="Degradado_sin_nombre_9-4" x1="137.35" y1="173.95" x2="233.19" y2="173.95" xlink:href="#Degradado_sin_nombre_9"/><linearGradient id="Degradado_sin_nombre_9-5" x1="116.12" y1="137.01" x2="156.24" y2="137.01" xlink:href="#Degradado_sin_nombre_9"/><linearGradient id="Degradado_sin_nombre_9-6" x1="55.2" y1="295.23" x2="178.32" y2="295.23" xlink:href="#Degradado_sin_nombre_9"/><linearGradient id="Degradado_sin_nombre_9-7" x1="0" y1="354.54" x2="233" y2="354.54" xlink:href="#Degradado_sin_nombre_9"/></defs><g id="Capa_2" data-name="Capa 2"><g id="Capa_1-2" data-name="Capa 1"><polygon class="cls-1" points="114.76 18.43 114.76 0 94.79 0 112.39 13.69 114.76 18.43"/><path class="cls-2" d="M84,193.69,70.58,172.17V134.51l35,21.52,9.22,18.42v-49L81.33,104.92,73.26,88.77v-35l26.9,13.44,14.6,24.32V38.1L98.7,27.39l-3.91-9.78V0H60.46A60.13,60.13,0,0,0,.33,60.13V103.5l24.21,16.14,10.77,16.14V157.3L8.4,143.85.33,125v88.86A60.13,60.13,0,0,0,60.46,274h45.08V207.14Zm-35-174.86L66.66,32.52l3.92,7.83V58L53,46.22l-3.92-9.78ZM27.54,80.46,14.33,71.65l-2.94-7.34V51.11L24.6,61.38l2.94,5.87Zm5.38,21.76V78l24.2,18.84L62.5,107.6v24.21L38.29,115.68Zm24.45,96.5L46.6,185.27V166.44l16.15,5.38,8.07,18.83L73.5,204.1Z"/><path class="cls-3" d="M154.89,166.85a4.1,4.1,0,1,0-3.9-.24v8.56l-13.14,13.18V160.88L152,146.71h.12a4.11,4.11,0,1,0-4.1-4.1,4.06,4.06,0,0,0,.55,2l-14.64,14.63v33L131,195.19V150.76l14.68-12.6h16.07l14.95-17.09h0a4.15,4.15,0,1,0-3.49-2L160,134.25H144.26L131,145.61V137l24.23-24.23h22.37l21.73-22.49a4.11,4.11,0,1,0-4.13-4.1,4,4,0,0,0,.61,2.12L176,108.88h-1.29l10.89-11.67V73.42l18.07-17a4.11,4.11,0,1,0-3.67-1.9l-18.3,17.22V95.67l-2.92,3.12V64.29l6.82-6.81V49.59l9.57-8.51,0,0h.14a4.11,4.11,0,1,0-4.11-4.1,4,4,0,0,0,.55,2l-10,8.9v8l-2.92,2.91V41.57l9.66-9.66-.13-.13a4.1,4.1,0,1,0-3.57-1.7L174.85,40V52l-12-12V25.54l7.35-9.19a4.12,4.12,0,1,0-3.81-1.49l-7.44,9.31v17.4l15.91,15.91V103l-5.51,5.91H159.17l3.67-3.68V95.4l5.69-6.15V60a4.11,4.11,0,1,0-3.91.08V87.72l-1.78,1.92V77.94a2,2,0,1,0-3.9,0v25.64L127.12,135.4V274H131v-73.3l23.86-23.94Z"/><path class="cls-4" d="M229.09,123.12a4.1,4.1,0,0,0-4,3.18H207.24l5.6-6.4v-8.29l14.51-15.19a4.09,4.09,0,1,0-3.71-1.77L212.84,106V89.22l6.27-7.17a4.08,4.08,0,1,0-3.66-1.74l-6.51,7.44v30.68l-6.89,7.87h-9L189,130.36v-9.25l14.4-14.41h.06a4.15,4.15,0,1,0-3.54-2l-14.83,14.83v14.77l-17,17.05v11.33l-1.78-2.14V145.26a4.11,4.11,0,1,0-3.9-.16v16.81l5.68,6.84v17.73l-5,4.59h-9.76L137.35,207v67h3.9V208.6L154.88,195h25l14.78-15.91h9.91a4,4,0,0,0,1.9.5,4.11,4.11,0,1,0-4.07-4.4H193l-14.77,15.91H168.8l3.13-2.87V176.25l16.17-15.37h20.62a4.11,4.11,0,1,0-1-3.9H192.21l12.64-12h12.68a4.11,4.11,0,1,0-1.73-3.91H203.29l-31.36,29.79V152.92l22.72-22.72h31.62a4.1,4.1,0,1,0,2.82-7.08Z"/><path class="cls-5" d="M152.13,57.46a4.1,4.1,0,0,0-3.42,6.36l-8,7.95V94.49l-5.19,5.19V56.88l9.19-9.7.19,0a4.11,4.11,0,1,0-4.1-4.11,4,4,0,0,0,.53,2l-5.81,6.13V30.67l16.76-20.43a4.09,4.09,0,1,0-3.59-1.78L135.57,24.52V7.81h-.16a4.11,4.11,0,1,0-3.49,0h-.25v95.77l-9.73,9.73V14.21A4.1,4.1,0,1,0,118,14V29.5l-.16-.32v18l.16.11V99.57l-.16-.27v31.92l.16.1v48.22l-.16-.32V274h4.07V118.83l22.72-22.72V73.38l7.75-7.74a4.09,4.09,0,0,0-.28-8.18Z"/><path class="cls-6" d="M64.23,289.6v.56l-2.87.28v-.62c0-1.35-.51-2-1.55-2a1.4,1.4,0,0,0-1.49,1.61v.42c0,1.1.56,2,2.5,3.77,2.65,2.45,3.55,4.05,3.55,6.33v1c0,2.9-1.83,4.42-4.56,4.42s-4.61-1.61-4.61-4.51v-1.29l2.87-.28v1.35c0,1.32.62,2,1.69,2,.9,0,1.63-.48,1.63-1.89v-.62c0-1.23-.57-2.13-2.51-3.91-2.64-2.45-3.54-4.05-3.54-6.19v-.48c0-2.89,1.69-4.41,4.44-4.41S64.23,286.7,64.23,289.6Zm9.26-1.46v5.57h4.36v2.75H73.49v5.86h5.4v2.75H70.51V285.38h8.38v2.76Zm16.24,8.61H88.35v8.32h-3V285.38h4.3c3.21,0,5,1.74,5,5v1.41c0,2.08-.73,3.54-2.11,4.33l2.73,9H92.09ZM88.35,294h1.21c1.43,0,2.08-.76,2.08-2.42v-1c0-1.66-.65-2.41-2.08-2.41H88.35Zm15.25,11.08-3.32-19.69h3l2.23,15h0l2.2-15h3l-3.32,19.69Zm13.54,0V285.38h3v19.69Zm19.33-15.25v1.78l-2.87.14v-1.61c0-1.57-.59-2.28-1.68-2.28s-1.69.71-1.69,2V300.6c0,1.29.59,2,1.69,2s1.68-.71,1.68-2.28v-2.2l2.87.14v2.37c0,3-1.71,4.73-4.64,4.73s-4.58-1.75-4.58-4.73V289.82c0-3,1.68-4.72,4.58-4.72S136.47,286.84,136.47,289.82Zm6.76,15.25V285.38h3v19.69Zm19.73-15v10.3c0,3.09-1.83,5-4.81,5s-4.82-1.89-4.82-5v-10.3c0-3.1,1.83-5,4.82-5S163,287,163,290.08Zm-6.64,0v10.25c0,1.46.64,2.25,1.83,2.25s1.82-.79,1.82-2.25V290.1c0-1.46-.64-2.25-1.82-2.25S156.32,288.64,156.32,290.1Zm21.86-.5v.56l-2.87.28v-.62c0-1.35-.5-2-1.54-2a1.4,1.4,0,0,0-1.5,1.61v.42c0,1.1.57,2,2.51,3.77,2.64,2.45,3.54,4.05,3.54,6.33v1c0,2.9-1.82,4.42-4.55,4.42s-4.62-1.61-4.62-4.51v-1.29l2.87-.28v1.35c0,1.32.62,2,1.69,2,.9,0,1.63-.48,1.63-1.89v-.62c0-1.23-.56-2.13-2.5-3.91-2.65-2.45-3.55-4.05-3.55-6.19v-.48c0-2.89,1.69-4.41,4.45-4.41S178.18,286.7,178.18,289.6Z"/><path class="cls-7" d="M34.86,334.14v6.69L24,341.36v-6.05c0-6-2.23-8.61-6.38-8.61s-6.37,2.65-6.37,7.54v40.61c0,4.89,2.23,7.54,6.37,7.54S24,379.74,24,373.78v-8.29l10.84.53V375c0,11.27-6.48,17.86-17.54,17.86S0,386.22,0,375V334.14c0-11.27,6.38-17.86,17.32-17.86S34.86,322.87,34.86,334.14Zm9,51.65h0a6,6,0,0,1,6-6h0a6,6,0,0,1,6,6h0a6,6,0,0,1-6,6h0A6,6,0,0,1,43.9,385.79Zm55.27-53.35V333c0,7-2.76,11.58-11.48,20.3l7.66,11.9h.21V354.23l9.78.53V367a29.22,29.22,0,0,1-1.7,11l9.14,13.72H99.39l-2.13-3.41c-3.19,3.09-7.44,4.47-12.75,4.47-11.27,0-18.5-6.38-18.5-18.18V372c0-6.7,2.13-12.44,8.19-19.35-5.11-8.5-6.7-13.39-6.7-19.24v-.64c0-10.73,5.53-16.47,15.84-16.47S99.17,322.34,99.17,332.44Zm-19,29.44c-2.13,3.93-2.87,6.69-2.87,10v1.7c0,6.17,3.19,8.82,7.76,8.82a8.68,8.68,0,0,0,6.59-2.65L80.36,361.88ZM78.34,333v.53c0,3,1,5.95,3.72,11.27h.21c4.79-5.32,6.27-8,6.27-11.48v-.54c0-3.82-1.8-6.05-5.1-6.05S78.34,328.82,78.34,333Zm40.5,52.82h0a6,6,0,0,1,6-6h0a6,6,0,0,1,6,6h0a6,6,0,0,1-6,6h0A6,6,0,0,1,118.84,385.79Zm55.27-52.49v2.12l-10.84,1.06v-2.34c0-5.1-1.92-7.43-5.85-7.43-3.29,0-5.63,1.8-5.63,6.05v1.6c0,4.14,2.13,7.54,9.46,14.23,10,9.25,13.39,15.3,13.39,23.91v3.61c0,10.95-6.91,16.68-17.22,16.68s-17.42-6.05-17.42-17v-4.88l10.84-1.07v5.1c0,5,2.33,7.44,6.37,7.44,3.4,0,6.16-1.8,6.16-7.12v-2.33c0-4.68-2.12-8.08-9.45-14.77-10-9.25-13.39-15.3-13.39-23.38V333c0-11,6.38-16.68,16.79-16.68S174.11,322.35,174.11,333.3Zm8.82,52.49h0a6,6,0,0,1,6-6h0a6,6,0,0,1,6,6h0a6,6,0,0,1-6,6h0A6,6,0,0,1,182.93,385.79ZM221,327V392.3H209.72V327h-12V316.34H233V327Z"/></g></g></svg>